# xmcd
#
# Track frame offsets: 
#        150
#        21267
#        33984
#        45169
#        57807
#        70334
#        83384
#        97119
#        111539
#        124537
#        138094
#        151679
#        164492
#        177474
#        187944
#        200599
#        213819
#        226517
#        239047
#        250787
#        262344
#
# Disc length: 3738 seconds
#
# Revision: 0
# Processed by: cddbd v1.5.2PL0 Copyright (c) Steve Scherf et al.
# Submitted via: ExactAudioCopy v0.95a5
#
DISCID=180e9815
DTITLE=Smokey Robinson and The Miracles - The Tracks Of My Tears (+ book
DTITLE=let)
DYEAR=1997
DGENRE=Soul
TTITLE0=Booklet
TTITLE1=Going To A Go-Go
TTITLE2=(Come 'Round Here) I'm The One You Need
TTITLE3=I Second That Emotion
TTITLE4=If You Can Wait
TTITLE5=The Tracks Of My Tears
TTITLE6=The Tears Of A Clown
TTITLE7=I Don't Blame You At All
TTITLE8=Shop Around
TTITLE9=You've Really Got A Hold On Me
TTITLE10=The Love I Saw In You Was Just A Mirage
TTITLE11=Mickey's Monkey
TTITLE12=My Girl Has Gone
TTITLE13=Yesterlove
TTITLE14=More Love
TTITLE15=(You Can't Let The Boy In You Overpower) The Man In You
TTITLE16=Ooo Baby Baby
TTITLE17=Whole Lot Of Shakin' In My Heart (Since I Met You)
TTITLE18=Choosey Beggar
TTITLE19=Point It Out
TTITLE20=We've Come Too Far To End It Now
EXTD=
EXTT0=
EXTT1=
EXTT2=
EXTT3=
EXTT4=
EXTT5=
EXTT6=
EXTT7=
EXTT8=
EXTT9=
EXTT10=
EXTT11=
EXTT12=
EXTT13=
EXTT14=
EXTT15=
EXTT16=
EXTT17=
EXTT18=
EXTT19=
EXTT20=
PLAYORDER=
